<svg width="393" height="172" viewBox="0 0 393 172" fill="none" xmlns="http://www.w3.org/2000/svg">
<g clip-path="url(#clip0_4651_1798)">
<path d="M133.6 172V78.1819C175.2 36.4849 216.8 36.4849 258.4 78.1819V172" fill="white" fill-opacity="0.04"/>
<path d="M160.9 172V74.2724C184.3 40.3936 207.7 40.3936 231.1 74.2724V172" fill="white" fill-opacity="0.03"/>
<path d="M196 39.873C198.585 39.873 200.68 37.7728 200.68 35.1821C200.68 32.5914 198.585 30.4912 196 30.4912C193.416 30.4912 191.32 32.5914 191.32 35.1821C191.32 37.7728 193.416 39.873 196 39.873Z" stroke="white" stroke-opacity="0.06" stroke-width="1.5"/>
<path d="M198.34 35.1814C198.34 35.6453 198.203 36.0987 197.946 36.4845C197.689 36.8702 197.323 37.1708 196.896 37.3483C196.468 37.5258 195.998 37.5723 195.544 37.4818C195.09 37.3913 194.673 37.1679 194.346 36.8399C194.018 36.5119 193.795 36.0939 193.705 35.639C193.615 35.184 193.661 34.7124 193.838 34.2838C194.015 33.8553 194.315 33.4889 194.7 33.2312C195.085 32.9735 195.537 32.8359 196 32.8359" fill="white" fill-opacity="0.06"/>
<path d="M103.18 46.9092H96.9396C95.6473 46.9092 94.5996 47.9593 94.5996 49.2546V169.655C94.5996 170.95 95.6473 172 96.9396 172H103.18C104.472 172 105.52 170.95 105.52 169.655V49.2546C105.52 47.9593 104.472 46.9092 103.18 46.9092Z" fill="white" fill-opacity="0.025"/>
<path d="M96.1602 46.9087C98.7602 40.6541 101.88 40.6541 105.52 46.9087Z" fill="white" fill-opacity="0.025"/>
<path d="M295.06 46.9092H288.82C287.528 46.9092 286.48 47.9593 286.48 49.2546V169.655C286.48 170.95 287.528 172 288.82 172H295.06C296.353 172 297.4 170.95 297.4 169.655V49.2546C297.4 47.9593 296.353 46.9092 295.06 46.9092Z" fill="white" fill-opacity="0.025"/>
<path d="M288.039 46.9087C290.639 40.6541 293.759 40.6541 297.399 46.9087Z" fill="white" fill-opacity="0.025"/>
<path d="M-116 148.546C-12 138.121 92 135.515 196 140.727C300 145.94 404 144.637 508 136.818V172H-116V148.546Z" fill="white" fill-opacity="0.02"/>
</g>
<defs>
<clipPath id="clip0_4651_1798">
<rect width="624" height="172" fill="white" transform="translate(-116)"/>
</clipPath>
</defs>
</svg>
