<svg width="186" height="158" viewBox="0 0 186 158" fill="none" xmlns="http://www.w3.org/2000/svg">
<g clip-path="url(#clip0_3258_1603)">
<path d="M109.227 40.5622H103.713C103.432 40.5618 103.162 40.4499 102.963 40.2508C102.764 40.0517 102.653 39.7818 102.652 39.5003V33.9788C102.653 33.6973 102.764 33.4274 102.963 33.2284C103.162 33.0293 103.432 32.9173 103.713 32.917H109.227C109.508 32.9173 109.778 33.0293 109.977 33.2284C110.176 33.4274 110.287 33.6973 110.288 33.9788V39.5003C110.287 39.7818 110.176 40.0517 109.977 40.2508C109.778 40.4499 109.508 40.5618 109.227 40.5622ZM103.713 33.3417C103.544 33.3419 103.382 33.4091 103.263 33.5285C103.144 33.648 103.077 33.8099 103.077 33.9788V39.5003C103.077 39.6692 103.144 39.8312 103.263 39.9506C103.382 40.0701 103.544 40.1372 103.713 40.1374H109.227C109.396 40.1372 109.558 40.0701 109.677 39.9506C109.796 39.8312 109.863 39.6692 109.864 39.5003V33.9788C109.863 33.8099 109.796 33.648 109.677 33.5285C109.558 33.4091 109.396 33.3419 109.227 33.3417H103.713Z" fill="#E6E6E6"/>
<path d="M44.9636 7.64516H39.4491C39.168 7.64484 38.8984 7.53287 38.6996 7.3338C38.5008 7.13474 38.389 6.86485 38.3887 6.58333V1.06183C38.389 0.780313 38.5008 0.510419 38.6996 0.311358C38.8984 0.112296 39.168 0.000322063 39.4491 0H44.9636C45.2447 0.000322063 45.5143 0.112296 45.7131 0.311358C45.9119 0.510419 46.0237 0.780313 46.024 1.06183V6.58333C46.0237 6.86485 45.9119 7.13474 45.7131 7.3338C45.5143 7.53287 45.2447 7.64484 44.9636 7.64516ZM39.4491 0.424731C39.2804 0.424916 39.1187 0.492097 38.9994 0.611536C38.8801 0.730975 38.813 0.892916 38.8129 1.06183V6.58333C38.813 6.75225 38.8801 6.91419 38.9994 7.03363C39.1187 7.15306 39.2804 7.22025 39.4491 7.22043H44.9636C45.1323 7.22025 45.294 7.15306 45.4133 7.03363C45.5326 6.91419 45.5997 6.75225 45.5998 6.58333V1.06183C45.5997 0.892916 45.5326 0.730975 45.4133 0.611536C45.294 0.492097 45.1323 0.424916 44.9636 0.424731H39.4491Z" fill="#E6E6E6"/>
<path d="M105.835 37.8014H100.32C100.039 37.8011 99.7695 37.6891 99.5707 37.4901C99.3719 37.291 99.2601 37.0211 99.2598 36.7396V31.2181C99.2601 30.9366 99.3719 30.6667 99.5707 30.4676C99.7695 30.2685 100.039 30.1566 100.32 30.1562H105.835C106.116 30.1566 106.385 30.2685 106.584 30.4676C106.783 30.6667 106.895 30.9366 106.895 31.2181V36.7396C106.895 37.0211 106.783 37.291 106.584 37.4901C106.385 37.6891 106.116 37.8011 105.835 37.8014ZM100.32 30.581C100.152 30.5812 99.9898 30.6483 99.8705 30.7678C99.7512 30.8872 99.6841 31.0492 99.684 31.2181V36.7396C99.6841 36.9085 99.7512 37.0704 99.8705 37.1899C99.9898 37.3093 100.152 37.3765 100.32 37.3767H105.835C106.003 37.3765 106.165 37.3093 106.284 37.1899C106.404 37.0704 106.471 36.9085 106.471 36.7396V31.2181C106.471 31.0492 106.404 30.8872 106.284 30.7678C106.165 30.6483 106.003 30.5812 105.835 30.581H100.32Z" fill="#E6E6E6"/>
<path d="M9.96747 83.8844H4.45304C4.17189 83.8841 3.90234 83.7721 3.70354 83.5731C3.50473 83.374 3.3929 83.1041 3.39258 82.8226V77.3011C3.3929 77.0196 3.50473 76.7497 3.70354 76.5506C3.90234 76.3516 4.17189 76.2396 4.45304 76.2393H9.96747C10.2486 76.2396 10.5182 76.3516 10.717 76.5506C10.9158 76.7497 11.0276 77.0196 11.0279 77.3011V82.8226C11.0276 83.1041 10.9158 83.374 10.717 83.5731C10.5182 83.7721 10.2486 83.8841 9.96747 83.8844ZM4.45304 76.664C4.28435 76.6642 4.12262 76.7314 4.00333 76.8508C3.88404 76.9702 3.81695 77.1322 3.81676 77.3011V82.8226C3.81695 82.9915 3.88404 83.1534 4.00333 83.2729C4.12262 83.3923 4.28435 83.4595 4.45304 83.4597H9.96747C10.1362 83.4595 10.2979 83.3923 10.4172 83.2729C10.5365 83.1534 10.6036 82.9915 10.6038 82.8226V77.3011C10.6036 77.1322 10.5365 76.9702 10.4172 76.8508C10.2979 76.7314 10.1362 76.6642 9.96747 76.664H4.45304Z" fill="#E6E6E6"/>
<path d="M6.57489 81.1237H1.06047C0.779312 81.1234 0.509765 81.0114 0.310959 80.8123C0.112152 80.6133 0.00032165 80.3434 0 80.0618V74.5403C0.00032165 74.2588 0.112152 73.9889 0.310959 73.7899C0.509765 73.5908 0.779312 73.4788 1.06047 73.4785H6.57489C6.85605 73.4788 7.12559 73.5908 7.3244 73.7899C7.52321 73.9889 7.63504 74.2588 7.63536 74.5403V80.0618C7.63504 80.3434 7.52321 80.6133 7.3244 80.8123C7.12559 81.0114 6.85605 81.1234 6.57489 81.1237ZM1.06047 73.9032C0.891771 73.9034 0.730038 73.9706 0.610752 74.0901C0.491466 74.2095 0.424371 74.3714 0.424187 74.5403V80.0618C0.424371 80.2308 0.491466 80.3927 0.610752 80.5121C0.730038 80.6316 0.891771 80.6988 1.06047 80.6989H6.57489C6.74359 80.6988 6.90532 80.6316 7.02461 80.5121C7.14389 80.3927 7.21099 80.2308 7.21117 80.0618V74.5403C7.21099 74.3714 7.14389 74.2095 7.02461 74.0901C6.90532 73.9706 6.74359 73.9034 6.57489 73.9032H1.06047Z" fill="#E6E6E6"/>
<path d="M19.6038 18.2717H70.6367C73.0993 18.2717 75.4887 19.1106 77.412 20.6506C79.3353 22.1905 80.6781 24.3398 81.2197 26.7452L107.006 141.267C107.287 142.516 107.292 143.812 107.02 145.063C106.748 146.314 106.207 147.491 105.433 148.51C104.659 149.53 103.672 150.367 102.54 150.964C101.409 151.561 100.161 151.903 98.8838 151.967L46.4216 154.555C43.6124 154.693 40.8488 153.804 38.6465 152.052C36.4442 150.3 34.9537 147.806 34.453 145.035L19.8257 64.0666L18.7375 64.378L15.9386 49.0314L17.0588 48.751L12.9758 26.1499C12.8009 25.1819 12.8415 24.1871 13.0946 23.2366C13.3477 22.286 13.8071 21.4031 14.4401 20.6507C15.0731 19.8983 15.864 19.295 16.7566 18.8838C17.6491 18.4726 18.6213 18.2636 19.6038 18.2717Z" fill="#3F3D56"/>
<path d="M63.919 20.7402H69.8761C71.5868 20.7402 73.2461 21.3261 74.5785 22.4005C75.9109 23.4749 76.8363 24.9733 77.201 26.6469L101.952 140.234C102.094 140.888 102.094 141.565 101.951 142.219C101.809 142.873 101.527 143.489 101.125 144.023C100.723 144.558 100.21 145 99.6219 145.318C99.0338 145.636 98.384 145.824 97.7169 145.867L45.4245 149.299C43.9492 149.396 42.49 148.945 41.3253 148.034C40.1606 147.122 39.3719 145.813 39.1099 144.356L17.9897 26.952C17.853 26.1921 17.8845 25.4114 18.0821 24.6651C18.2796 23.9187 18.6383 23.2249 19.1329 22.6325C19.6275 22.0401 20.2459 21.5636 20.9444 21.2367C21.643 20.9097 22.4047 20.7402 23.1759 20.7402H28.8271C29.3741 20.7402 29.9058 20.9208 30.3399 21.2539C30.774 21.5871 31.0864 22.0542 31.2286 22.583C31.3541 23.0499 31.6298 23.4623 32.0131 23.7564C32.3964 24.0505 32.8658 24.2099 33.3486 24.2099H60.177C61.1225 24.2099 62.0332 23.8525 62.727 23.2093C63.4207 22.566 63.8465 21.6842 63.919 20.7402Z" fill="white"/>
<path d="M22.0586 40.0537H78.7885L84.8321 67.3202L27.3609 68.382L22.0586 40.0537Z" fill="#116E63"/>
<path d="M75.9297 91.6895H89.2854L89.7096 94.2495H76.3539L75.9297 91.6895Z" fill="#116E63"/>
<path d="M86.7969 78.63L30.1543 79.8311L30.1599 80.098L86.8026 78.8969L86.7969 78.63Z" fill="#2F2E41"/>
<path d="M88.5292 86.5034L30.8203 87.8379L30.8265 88.1048L88.5353 86.7703L88.5292 86.5034Z" fill="#2F2E41"/>
<path d="M81.4434 119.085H94.7991L95.2233 121.645H81.8675L81.4434 119.085Z" fill="#116E63"/>
<path d="M92.3106 106.025L35.668 107.226L35.6736 107.492L92.3162 106.291L92.3106 106.025Z" fill="#2F2E41"/>
<path d="M94.0428 113.898L36.334 115.232L36.3401 115.499L94.049 114.165L94.0428 113.898Z" fill="#2F2E41"/>
<path d="M130.555 155.283L128.028 155.283L126.826 145.523L130.556 145.524L130.555 155.283Z" fill="#A0616A"/>
<path d="M131.201 157.736L123.053 157.736V157.633C123.053 156.79 123.387 155.983 123.982 155.387C124.577 154.792 125.383 154.457 126.224 154.457L131.201 154.457L131.201 157.736Z" fill="#2F2E41"/>
<path d="M161.95 153.626L159.491 154.206L156.086 144.982L159.716 144.126L161.95 153.626Z" fill="#A0616A"/>
<path d="M163.139 155.865L155.208 157.735L155.184 157.635C154.991 156.815 155.132 155.952 155.574 155.236C156.017 154.52 156.725 154.009 157.544 153.816L162.389 152.674L163.139 155.865Z" fill="#2F2E41"/>
<path d="M130.04 114.118C130.044 113.609 130.195 101.606 133.481 97.0679L133.529 97.001L144.981 98.5828L144.725 101.102C145.228 101.593 149.19 105.738 150.334 115.554L162.489 148.241L156.838 148.755L140.112 113.074L131.26 151.859H125.658L130.04 114.118Z" fill="#2F2E41"/>
<path d="M132.139 97.5112L133.258 91.6269C133.039 91.3445 132.068 89.9881 132.284 88.3982C132.425 87.3609 133.044 86.4513 134.123 85.694L137.024 78.9152L137.063 78.8923C137.258 78.777 141.878 76.1023 144.397 78.6258C144.46 78.6747 150.66 83.6032 148.17 90.2519L145.096 99.4867L132.139 97.5112Z" fill="#CCCCCC"/>
<path d="M128.244 105.472C128.546 105.437 128.837 105.337 129.096 105.178C129.355 105.018 129.576 104.804 129.743 104.551C129.91 104.297 130.02 104.009 130.064 103.708C130.109 103.407 130.087 103.1 130 102.809L135.991 98.4862L132.404 97.1201L127.264 101.434C126.785 101.613 126.388 101.962 126.148 102.414C125.908 102.866 125.843 103.391 125.963 103.889C126.084 104.387 126.383 104.823 126.804 105.114C127.224 105.406 127.737 105.533 128.244 105.472Z" fill="#A0616A"/>
<path d="M129.346 98.4792L138.493 91.2628L135.774 81.9594C135.646 81.5189 135.609 81.0567 135.667 80.6015C135.725 80.1464 135.876 79.7081 136.111 79.3139C136.328 78.9422 136.62 78.6201 136.969 78.3681C137.317 78.1161 137.715 77.9398 138.136 77.8505C139.702 77.5187 141.123 78.3967 142.36 80.4605L142.369 80.4791C142.574 80.9799 147.339 92.7753 143.701 95.2978C140.141 97.7651 131.887 101.357 131.804 101.393L131.707 101.435L129.346 98.4792Z" fill="#CCCCCC"/>
<path d="M141.504 76.1724C144.565 76.1724 147.046 73.6882 147.046 70.6238C147.046 67.5594 144.565 65.0752 141.504 65.0752C138.444 65.0752 135.963 67.5594 135.963 70.6238C135.963 73.6882 138.444 76.1724 141.504 76.1724Z" fill="#A0616A"/>
<path d="M150.191 68.6426C152.899 68.6426 155.094 66.4449 155.094 63.7339C155.094 61.0229 152.899 58.8252 150.191 58.8252C147.484 58.8252 145.289 61.0229 145.289 63.7339C145.289 66.4449 147.484 68.6426 150.191 68.6426Z" fill="#2F2E41"/>
<path d="M154.42 67.7985C153.786 68.2577 153.051 68.5581 152.276 68.6745C151.502 68.7909 150.711 68.7199 149.97 68.4676C149.229 68.2152 148.559 67.7888 148.016 67.224C147.473 66.6591 147.073 65.9723 146.85 65.221C146.934 65.8943 147.157 66.5427 147.505 67.1253C147.852 67.708 148.316 68.2121 148.868 68.606C149.42 68.9998 150.048 69.2749 150.711 69.4137C151.374 69.5525 152.059 69.5521 152.723 69.4125C153.386 69.2729 154.013 68.9971 154.564 68.6026C155.116 68.2081 155.579 67.7034 155.926 67.1203C156.273 66.5373 156.495 65.8886 156.579 65.2152C156.663 64.5418 156.606 63.8584 156.413 63.208C156.523 64.0818 156.396 64.9691 156.045 65.7768C155.694 66.5845 155.133 67.2828 154.42 67.7985Z" fill="#2F2E41"/>
<path d="M135.072 67.8042C135.928 66.2701 136.256 65.6292 137.359 64.6963C138.335 63.8713 139.535 63.629 140.503 64.4107C141.649 63.9153 142.923 63.8029 144.137 64.0904C145.351 64.3778 146.44 65.0498 147.243 66.0064C148.045 66.963 148.518 68.1533 148.591 69.4004C148.664 70.6474 148.333 71.8848 147.648 72.9287C146.962 73.9726 145.959 74.7673 144.787 75.1948C143.615 75.6222 142.336 75.6597 141.141 75.3015C139.945 74.9433 138.897 74.2087 138.152 73.2067C137.407 72.2046 137.005 70.9887 137.005 69.7395C137.006 69.5201 137.019 69.3009 137.045 69.0831C136.203 68.9647 135.914 67.9226 135.072 67.8042Z" fill="#2F2E41"/>
<path d="M185.787 158H104.98C104.923 158 104.869 157.978 104.83 157.938C104.79 157.898 104.768 157.844 104.768 157.788C104.768 157.731 104.79 157.677 104.83 157.637C104.869 157.598 104.923 157.575 104.98 157.575H185.787C185.843 157.575 185.897 157.598 185.937 157.637C185.977 157.677 185.999 157.731 185.999 157.788C185.999 157.844 185.977 157.898 185.937 157.938C185.897 157.978 185.843 158 185.787 158Z" fill="#3F3D56"/>
<circle cx="176" cy="74" r="5" fill="#4AA08A"/>
</g>
<defs>
<clipPath id="clip0_3258_1603">
<rect width="186" height="158" fill="white"/>
</clipPath>
</defs>
</svg>
