<svg width="50" height="49" viewBox="0 0 50 49" fill="none" xmlns="http://www.w3.org/2000/svg">
<g filter="url(#filter0_di_3912_1907)">
<path d="M4.97611 15.7346L24.5408 27.3902C25.1715 27.7659 25.9574 27.7659 26.5881 27.3902L42.8232 17.7182C44.5687 16.6783 43.8313 14 41.7996 14H28.0164C26.9118 14 26.0164 13.1046 26.0164 12V3.4856C26.0164 1.94124 24.3404 0.979599 23.0071 1.75892L4.99048 12.2897C3.67585 13.0581 3.66794 14.9553 4.97611 15.7346Z" fill="#116E63"/>
<path d="M8.26718 31.3216C7.90002 30.9626 8.1142 24.2909 8.26718 21L24.3301 29.9753C25.8391 30.8495 26.6321 30.72 28.0016 29.9753L44.0645 21V31.3216L27.5426 40.7457C26.4448 41.064 25.8394 41.105 24.789 40.7457C19.4347 37.7539 8.63433 31.6806 8.26718 31.3216Z" fill="#10B981"/>
</g>
<defs>
<filter id="filter0_di_3912_1907" x="0" y="1.48267" width="48.0645" height="47.5173" filterUnits="userSpaceOnUse" color-interpolation-filters="sRGB">
<feFlood flood-opacity="0" result="BackgroundImageFix"/>
<feColorMatrix in="SourceAlpha" type="matrix" values="0 0 0 0 0 0 0 0 0 0 0 0 0 0 0 0 0 0 127 0" result="hardAlpha"/>
<feOffset dy="4"/>
<feGaussianBlur stdDeviation="2"/>
<feComposite in2="hardAlpha" operator="out"/>
<feColorMatrix type="matrix" values="0 0 0 0 0 0 0 0 0 0 0 0 0 0 0 0 0 0 0.25 0"/>
<feBlend mode="normal" in2="BackgroundImageFix" result="effect1_dropShadow_3912_1907"/>
<feBlend mode="normal" in="SourceGraphic" in2="effect1_dropShadow_3912_1907" result="shape"/>
<feColorMatrix in="SourceAlpha" type="matrix" values="0 0 0 0 0 0 0 0 0 0 0 0 0 0 0 0 0 0 127 0" result="hardAlpha"/>
<feOffset dy="4"/>
<feGaussianBlur stdDeviation="0.5"/>
<feComposite in2="hardAlpha" operator="arithmetic" k2="-1" k3="1"/>
<feColorMatrix type="matrix" values="0 0 0 0 0 0 0 0 0 0 0 0 0 0 0 0 0 0 0.25 0"/>
<feBlend mode="normal" in2="shape" result="effect2_innerShadow_3912_1907"/>
</filter>
</defs>
</svg>
