<svg width="70" height="70" viewBox="0 0 70 70" fill="none" xmlns="http://www.w3.org/2000/svg">
<rect width="70" height="70" rx="12" fill="#D9D9D9"/>
<g filter="url(#filter0_di_4650_1797)">
<path d="M13.9117 30.7346L33.4764 42.3902C34.1071 42.7659 34.8929 42.7659 35.5236 42.3902L51.7587 32.7182C53.5042 31.6783 52.7669 29 50.7351 29H36.9519C35.8474 29 34.9519 28.1046 34.9519 27V18.4856C34.9519 16.9412 33.276 15.9796 31.9427 16.7589L13.926 27.2897C12.6114 28.0581 12.6035 29.9553 13.9117 30.7346Z" fill="#116E63"/>
<path d="M17.2027 46.3216C16.8356 45.9626 17.0497 39.2909 17.2027 36L33.2656 44.9753C34.7746 45.8495 35.5677 45.72 36.9371 44.9753L53 36V46.3216L36.4782 55.7457C35.3804 56.064 34.7749 56.105 33.7245 55.7457C28.3702 52.7539 17.5699 46.6806 17.2027 46.3216Z" fill="#10B981"/>
</g>
<defs>
<filter id="filter0_di_4650_1797" x="8.93555" y="16.4824" width="48.0645" height="47.5176" filterUnits="userSpaceOnUse" color-interpolation-filters="sRGB">
<feFlood flood-opacity="0" result="BackgroundImageFix"/>
<feColorMatrix in="SourceAlpha" type="matrix" values="0 0 0 0 0 0 0 0 0 0 0 0 0 0 0 0 0 0 127 0" result="hardAlpha"/>
<feOffset dy="4"/>
<feGaussianBlur stdDeviation="2"/>
<feComposite in2="hardAlpha" operator="out"/>
<feColorMatrix type="matrix" values="0 0 0 0 0 0 0 0 0 0 0 0 0 0 0 0 0 0 0.25 0"/>
<feBlend mode="normal" in2="BackgroundImageFix" result="effect1_dropShadow_4650_1797"/>
<feBlend mode="normal" in="SourceGraphic" in2="effect1_dropShadow_4650_1797" result="shape"/>
<feColorMatrix in="SourceAlpha" type="matrix" values="0 0 0 0 0 0 0 0 0 0 0 0 0 0 0 0 0 0 127 0" result="hardAlpha"/>
<feOffset dy="4"/>
<feGaussianBlur stdDeviation="0.5"/>
<feComposite in2="hardAlpha" operator="arithmetic" k2="-1" k3="1"/>
<feColorMatrix type="matrix" values="0 0 0 0 0 0 0 0 0 0 0 0 0 0 0 0 0 0 0.25 0"/>
<feBlend mode="normal" in2="shape" result="effect2_innerShadow_4650_1797"/>
</filter>
</defs>
</svg>
